<svg viewBox="0 0 656 656" xmlns="http://www.w3.org/2000/svg" xml:space="preserve" style="fill-rule:evenodd;clip-rule:evenodd;stroke-linejoin:round;stroke-miterlimit:2"><path d="m12 138 260-95c4-2 9-2 13 0l259 95c17 6 17 29 0 35l-87 32v53h42c13 0 23 10 23 23l86 2c0-14 10-25 24-25 13 0 23 10 23 23v244c0 44-36 89-80 89H244c-55-4-88-31-88-89V378l-44-17c-7-3-12-10-12-18V205l-27-9v178c0 25-38 25-38 0V182l-23-9c-16-6-16-29 0-35Zm445 167v38c0 9-6 16-14 18l-159 61c-5 2-10 1-15-1l-66-25v129c0 32 13 40 44 42h238c-6-12-10-26-10-42V305h-18Zm65 25v195c0 56 86 56 86 0V330h-86Zm-237-62c-5 2-8 2-12 1-45-15-90-33-135-50v111l139 53 141-53V219l-133 49Z" style="fill:#da2818;fill-rule:nonzero"/></svg>